<svg width="189" height="80" viewBox="0 0 189 80" fill="none" xmlns="http://www.w3.org/2000/svg">
<path d="M15.5919 29.8868L0 30.6054L20.2462 65.4491L30 53.5L15.5919 29.8868Z" fill="white"/>
<path d="M13.9019 78.8448H28.5253C52.2473 23.041 108.42 -9.37628 172.263 18.8329C100.5 -30 28.5253 28.317 13.9019 78.8448Z" fill="white"/>
<path d="M80.6085 80.0003C69.2285 80.0003 60 71.0548 60 59.3918C60 47.7287 69.2285 38.7832 80.6085 38.7832C91.9885 38.7832 101.217 47.7287 101.217 59.3918C101.217 71.0548 91.9885 80.0003 80.6085 80.0003ZM80.6085 71.1681C87.0629 71.1681 92.1584 66.4689 92.1584 59.3918C92.1584 52.3146 87.0629 47.6154 80.6085 47.6154C74.1542 47.6154 69.0587 52.3146 69.0587 59.3918C69.0587 66.4689 74.1542 71.1681 80.6085 71.1681Z" fill="white"/>
<path d="M126.303 39.5758C134.116 39.5758 140.174 45.6338 140.174 53.1639C140.174 60.6939 134.116 66.7519 126.303 66.7519H120.358V79.2077H111.3V39.5758H126.303ZM126.303 58.2594C129.077 58.2594 131.116 56.0514 131.116 53.1639C131.116 50.2764 129.077 48.0684 126.303 48.0684H120.358V58.2594H126.303Z" fill="white"/>
<path d="M168.311 80.0003C156.931 80.0003 147.702 71.0548 147.702 59.3918C147.702 47.7287 156.931 38.7832 168.311 38.7832C179.691 38.7832 188.919 47.7287 188.919 59.3918C188.919 71.0548 179.691 80.0003 168.311 80.0003ZM168.311 71.1681C174.765 71.1681 179.861 66.4689 179.861 59.3918C179.861 52.3146 174.765 47.6154 168.311 47.6154C161.856 47.6154 156.761 52.3146 156.761 59.3918C156.761 66.4689 161.856 71.1681 168.311 71.1681Z" fill="white"/>
</svg>
